<svg xmlns="http://www.w3.org/2000/svg" fill="#ffffff" viewBox="0 0 435.62 170.79"><g id="Layer_2" data-name="Layer 2"><g id="Layer_1-2" data-name="Layer 1"><path d="M166,100.08H163q-51,0-101.92,0a3.94,3.94,0,0,1-3.91-2.32Q29.28,50.14,1.26,2.53C.87,1.85.52,1.15,0,.2.76.14,1.27.06,1.78.06Q56.33.06,110.89,0c1.86,0,2.48.91,3.18,2.23q23.52,44.36,47.06,88.7C162.66,93.81,164.17,96.7,166,100.08Z"/><path d="M435.62.15c-.52,1-.87,1.67-1.26,2.34q-28,47.75-56.06,95.5a3.76,3.76,0,0,1-3.78,2.13q-51-.08-101.92,0h-2.23a2.47,2.47,0,0,1-.28-.37.31.31,0,0,1,0-.21,6.85,6.85,0,0,1,.35-.89L322.67.15Z"/><path d="M142.82,34.22H293.21c-.43.9-.74,1.61-1.11,2.3-11.34,21.66-22.53,43.4-34.09,64.94-6.16,11.47-12.94,22.61-19.45,33.89l-19.06,33c-.43.74-.89,1.46-1.47,2.42-.55-.86-1-1.5-1.38-2.18-12.51-21.66-25.15-43.24-37.46-65-6.21-11-11.81-22.32-17.68-33.5s-11.72-22.36-17.57-33.55C143.58,35.86,143.26,35.15,142.82,34.22Z"/></g></g></svg>